<?xml version="1.0" encoding="UTF-8"?>
<svg width="24px" height="24px" viewBox="0 0 24 24" version="1.1" xmlns="http://www.w3.org/2000/svg" xmlns:xlink="http://www.w3.org/1999/xlink">
    <!-- Generator: Sketch 53 (72520) - https://sketchapp.com -->
    <title>Feature/ Staff</title>
    <desc>Created with Sketch.</desc>
    <g id="Feature/-Staff" stroke="none" stroke-width="1" fill="none" fill-rule="evenodd">
        <path d="M19,19 C19,19.2761424 18.7761424,19.5 18.5,19.5 C18.2238576,19.5 18,19.2761424 18,19 C18,15.6862915 15.3137085,13 12,13 C8.6862915,13 6,15.6862915 6,19 C6,19.2761424 5.77614237,19.5 5.5,19.5 C5.22385763,19.5 5,19.2761424 5,19 C5,15.1340068 8.13400675,12 12,12 C15.8659932,12 19,15.1340068 19,19 Z M12,12 C9.51471863,12 7.5,9.98528137 7.5,7.5 C7.5,5.01471863 9.51471863,3 12,3 C14.4852814,3 16.5,5.01471863 16.5,7.5 C16.5,9.98528137 14.4852814,12 12,12 Z M12,11 C13.9329966,11 15.5,9.43299662 15.5,7.5 C15.5,5.56700338 13.9329966,4 12,4 C10.0670034,4 8.5,5.56700338 8.5,7.5 C8.5,9.43299662 10.0670034,11 12,11 Z" id="Combined-Shape" fill="#777777" fill-rule="nonzero"></path>
    </g>
</svg>